<?xml version="1.0" encoding="utf-8"?>
<!-- Generator: Adobe Illustrator 23.0.2, SVG Export Plug-In . SVG Version: 6.00 Build 0)  -->
<svg version="1.1" id="Layer_1" xmlns="http://www.w3.org/2000/svg" xmlns:xlink="http://www.w3.org/1999/xlink" x="0px" y="0px"
	 viewBox="0 0 167.51 170.57" style="enable-background:new 0 0 167.51 170.57;" xml:space="preserve">
<style type="text/css">
	.st0{fill-rule:evenodd;clip-rule:evenodd;fill:url(#SVGID_1_);}
</style>
<g>
	
		<radialGradient id="SVGID_1_" cx="-21.7174" cy="108.0595" r="154.2613" gradientTransform="matrix(-0.9217 0.3879 -0.3879 -0.9217 179.2897 160.0388)" gradientUnits="userSpaceOnUse">
		<stop  offset="0" style="stop-color:#44C0EB"/>
		<stop  offset="1" style="stop-color:#18162F"/>
	</radialGradient>
	<path class="st0" d="M42.11,14.77c1.16-0.57,2.22-0.6,2.46-0.04c0.22,0.9,0.22,0.9,0.56,1.91c0.19,0.66-0.66,1.77-1.97,2.4
		C31.4,25.64,31.4,25.64,21,32.75c-0.91,0.8-1.73,0.81-1.64,0.03c0.21-1.08,0.21-1.08,0.3-2.03c0.15-0.64,1-1.74,1.84-2.51
		C31.07,21.15,31.07,21.15,42.11,14.77L42.11,14.77z M75.4,3.15c1.21-0.26,2.5-0.14,3.02,0.3c0.68,0.63,0.68,0.63,1.48,1.36
		c0.58,0.58-0.05,1.26-1.43,1.51c-12.8,3.57-12.8,3.57-25.81,8.38c-1.26,0.53-2.62,0.44-2.89-0.19c-0.41-0.98-0.41-0.98-0.73-1.92
		c-0.13-0.52,0.74-1.39,1.93-1.89C63.22,6.21,63.22,6.21,75.4,3.15L75.4,3.15z M71.6,1.2C72.67,1,73.87,0.9,74.24,1
		c0.54,0.1,0.54,0.1,1.14,0.35c0.43,0.23-0.17,0.57-1.41,0.76C62.18,4.93,62.18,4.93,50.35,9.24c-1.19,0.5-2.29,0.64-2.44,0.28
		C47.78,9,47.78,9,47.7,8.62c-0.09-0.21,0.77-0.74,1.89-1.21C60.6,3.51,60.6,3.51,71.6,1.2L71.6,1.2z M24.74,22.99
		c7.92-6.31,7.92-6.31,16.92-11.83c1.1-0.54,1.97-0.83,1.92-0.56c0.08,0.38,0.08,0.38,0.19,0.83c0.01,0.41-0.83,1.18-1.96,1.82
		c-10.54,6.17-10.54,6.17-19.74,13.18c-0.91,0.79-1.37,1.07-1.07,0.62c0.39-0.66,0.39-0.66,0.83-1.18c0.04-0.1,0.11-0.13,0.22-0.26
		l0,0C22.89,24.67,23.77,23.81,24.74,22.99L24.74,22.99z M146.82,141.03c-2.21,2.42-2.21,2.42-4.72,4.88
		c-0.77,0.73-1.3,1.04-1.14,0.64c0.29-0.7,0.29-0.7,0.47-1.44c0.17-0.57,1.03-1.67,1.97-2.4c6.93-6.72,6.93-6.72,11.98-13.55
		C152.92,133.33,150.07,137.35,146.82,141.03L146.82,141.03z M164.17,109.01c-0.51,1.54-0.51,1.54-1.2,3.23
		c-0.38,0.66-0.54,0.48-0.42-0.4c0.23-1.42,0.23-1.42,0.36-2.88c0.14-1.05,0.57-2.39,0.99-3.15c1.57-3.14,1.57-3.14,2.41-6.05l0,0
		C165.81,102.87,165.05,106,164.17,109.01L164.17,109.01z M166.94,95.37c-0.97,3.38-0.97,3.38-2.95,6.94
		c-0.45,0.69-0.84,0.35-0.91-0.77c-0.06-1.71-0.06-1.71-0.15-3.49c-0.09-1.2,0.28-2.68,0.76-3.29c2.8-4.16,2.8-4.16,3.82-7.81l0,0
		C167.48,89.77,167.26,92.59,166.94,95.37L166.94,95.37z M167.49,82.74c-0.99,3.72-0.99,3.72-4.28,8.08
		c-0.55,0.47-1.16-0.01-1.38-1.32c-0.32-1.93-0.32-1.93-0.71-3.84c-0.22-1.31,0.05-2.83,0.59-3.31c4-4.24,4-4.24,5.14-7.61l0,0
		C167.23,77.39,167.43,80.04,167.49,82.74L167.49,82.74z M166.32,70.91c-1.22,3-1.22,3-5.62,7.08c-0.61,0.5-1.42-0.23-1.78-1.48
		c-0.58-2.16-0.58-2.16-1.19-4.21c-0.39-1.33-0.16-2.75,0.45-3.25c4.86-3.37,4.86-3.37,6.44-5.52c0.04-0.1,0,0,0.06,0.14l0,0
		C165.35,66.04,165.87,68.46,166.32,70.91L166.32,70.91z M163.25,58.91l0.03,0.07l0,0l0,0c0.18,0.42,0.26,0.8,0.26,0.8
		c-1.82,1.76-1.82,1.76-6.83,4.78c-0.71,0.46-1.72-0.35-2.21-1.72c-0.76-1.99-0.76-1.99-1.57-4.13c-0.56-1.34-0.43-2.79,0.27-3.09
		c5.41-2.28,5.41-2.28,7.58-3.19c0.07-0.03,0.19,0.25,0.39,0.74C161.96,55.07,162.66,56.92,163.25,58.91L163.25,58.91z M158.87,48.1
		c0.28,0.46,0.42,0.81,0.33,0.77c-2.35,0.49-2.35,0.49-7.91,2.42c-0.76,0.15-1.84-0.63-2.5-2.01c-1-1.98-1-1.98-1.89-3.91
		c-0.67-1.21-0.55-2.5,0.21-2.65c5.84-1.05,5.84-1.05,8.48-0.67c0.1,0.04,0.19,0.25,0.35,0.43
		C156.96,44.36,157.97,46.17,158.87,48.1L158.87,48.1z M153.64,38.82c-2.82-0.8-2.82-0.8-8.76-0.2c-0.76,0.16-2.04-0.71-2.71-1.92
		c-1.11-1.85-1.11-1.85-2.16-3.56c-0.74-1.17-0.68-2.2,0.05-2.25c5.83,0.11,5.83,0.11,9.04,1.65l0,0
		C150.71,34.6,152.24,36.68,153.64,38.82L153.64,38.82z M146.57,29.48c-3.27-1.68-3.27-1.68-8.91-2.12
		c-0.82,0.01-2.06-0.78-2.85-1.86c-1.16-1.58-1.16-1.58-2.26-3.02c-0.82-0.98-0.71-1.68,0.04-1.67c4.93,0.9,4.93,0.9,8.28,2.79l0,0
		C142.87,25.42,144.72,27.45,146.57,29.48L146.57,29.48z M137.78,20.78c-3.23-1.78-3.23-1.78-7.8-2.83
		c-0.78-0.08-2.09-0.85-2.86-1.69c-1.15-1.17-1.15-1.17-2.38-2.31c-0.78-0.67-0.74-1.17,0.1-0.95c3.31,1,3.31,1,5.98,2.44l0,0
		C133.27,17.14,135.58,18.9,137.78,20.78L137.78,20.78z M126.99,13.01c-2.24-1.2-2.24-1.2-4.75-2.05c-0.87-0.3-2.1-0.85-2.91-1.42
		c-1.14-0.76-1.14-0.76-2.29-1.51c-0.76-0.43-0.82-0.57-0.02-0.24c0.67,0.22,0.67,0.22,1.3,0.53l0,0
		C121.3,9.7,124.17,11.22,126.99,13.01L126.99,13.01z M107.86,4.28c0.37,0.09,0.47,0.13,1.04,0.31c0.73,0.36,0.59,0.41-0.22,0.26
		c-9.67-0.97-9.67-0.97-20.98-0.18c-1.17,0.16-2.62-0.14-3.24-0.62c-0.78-0.67-0.78-0.67-1.55-1.33c-0.56-0.34,0.02-0.75,1.22-0.84
		c9.64-0.26,9.64-0.26,18.04,0.84C104.08,3.15,105.96,3.68,107.86,4.28L107.86,4.28z M95.49,1.39c-6.25-0.51-6.25-0.51-13.05-0.37
		c-1.13,0.06-2.39,0.01-2.86-0.12c-0.67-0.21-0.67-0.21-1.31-0.36c-0.34-0.02-0.1-0.04,0.45-0.11l0,0
		C84.4,0.19,90.01,0.56,95.49,1.39L95.49,1.39z M104.79,163.68c1.22-0.43,2.48-0.38,2.73,0.01c0.33,0.61,0.33,0.61,0.71,1.11
		c0.26,0.22-0.66,0.78-1.75,1.15c-11.53,3.04-11.53,3.04-22.51,4.43c-1.06,0.03-2.39,0.01-2.86-0.12c-0.7-0.29-0.7-0.29-1.46-0.54
		c-0.53-0.28,0-0.58,1.1-0.71C92.51,167.11,92.51,167.11,104.79,163.68L104.79,163.68z M136.39,148.06c1-0.75,1.8-0.84,1.69-0.3
		c-0.19,0.74-0.19,0.74-0.4,1.41c-0.16,0.4-1.04,1.26-1.97,1.99c-9.83,6.29-9.83,6.29-20.73,11.62c-1.19,0.5-2.19,0.67-2.41,0.35
		c-0.24-0.56-0.24-0.56-0.54-1.1c-0.21-0.49,0.7-1.28,1.89-1.79C125.69,154.63,125.69,154.63,136.39,148.06L136.39,148.06z
		 M101.19,157.5c1.37-0.49,2.78-0.26,3.11,0.51c0.61,1.07,0.61,1.07,1.13,2.09c0.41,0.58-0.47,1.44-1.69,1.87
		c-12.67,3.68-12.67,3.68-24.75,5.79c-1.17,0.17-2.52-0.1-3.21-0.55c-0.81-0.74-0.81-0.74-1.71-1.51c-0.68-0.63-0.12-1.27,1.12-1.46
		C87.88,161.62,87.88,161.62,101.19,157.5L101.19,157.5z M135.91,140.82c1.24-0.77,2.19-0.67,2.31,0.18
		c0.02,1.23,0.02,1.23,0.08,2.36c-0.01,0.75-0.77,1.9-1.88,2.61c-11.09,6.65-11.09,6.65-23.28,12.44c-1.26,0.53-2.55,0.42-2.89-0.19
		c-0.52-1.02-0.52-1.02-0.99-2.15c-0.32-0.77,0.46-1.85,1.87-2.44C124.06,147.63,124.06,147.63,135.91,140.82L135.91,140.82z
		 M159.13,120.39c0.45-0.69,0.72-0.64,0.5,0.21c-0.38,1.07-0.38,1.07-0.79,2.23c-0.29,0.7-0.94,1.89-1.37,2.64
		c-5.72,7.62-5.72,7.62-13.72,15.11c-0.93,0.72-1.72,0.81-1.64,0.03c-0.03-1.06-0.03-1.06-0.05-2.29c-0.01-0.82,0.82-2.17,1.83-2.92
		C152.7,127.89,152.7,127.89,159.13,120.39L159.13,120.39z M59.58,157.99c1.17-0.16,2.81,0.39,3.5,1.26
		c1.01,1.22,1.01,1.22,2.07,2.35c0.63,0.72,0.28,1.45-0.92,1.54c-10.55,0.06-10.55,0.06-18.98-1.51c-0.7-0.28-1.93-0.84-2.71-1.34
		c-1.17-0.83-1.17-0.83-2.35-1.65c-0.75-0.6-0.83-0.98-0.09-0.79C48.74,158.75,48.74,158.75,59.58,157.99L59.58,157.99z
		 M96.4,148.28c1.51-0.55,3.08-0.14,3.6,0.88c0.72,1.52,0.72,1.52,1.44,3.03c0.45,0.88-0.3,2.02-1.74,2.55
		c-13.56,4.3-13.56,4.3-26.55,7.2c-1.31,0.22-2.82-0.21-3.48-1.01c-0.98-1.16-0.98-1.16-2.03-2.45c-0.62-0.89-0.11-1.85,1.16-2.14
		C82.24,152.92,82.24,152.92,96.4,148.28L96.4,148.28z M133.97,130.73c1.28-0.7,2.48-0.38,2.76,0.66c0.27,1.62,0.27,1.62,0.54,3.24
		c0.24,0.98-0.64,2.42-1.81,3.16c-12.26,6.81-12.26,6.81-25.53,12.98c-1.4,0.59-2.85,0.29-3.26-0.69c-0.69-1.44-0.69-1.44-1.34-2.99
		c-0.44-1.05,0.3-2.44,1.77-3.06C121.03,137.67,121.03,137.67,133.97,130.73L133.97,130.73z M160.09,110.89
		c0.59-0.75,1.05-0.44,1.02,0.65c-0.1,1.53-0.1,1.53-0.23,2.99c-0.2,0.91-0.7,2.27-1.22,3c-6.8,7.41-6.8,7.41-15.99,14.83
		c-1.11,0.71-2.08,0.55-2.19-0.48c-0.24-1.55-0.24-1.55-0.51-3.17c-0.2-1.07,0.62-2.66,1.72-3.37
		C152.59,118.02,152.59,118.02,160.09,110.89L160.09,110.89z M130.56,118.28c1.34-0.73,2.78-0.26,3.1,1.09
		c0.59,1.98,0.59,1.98,1.04,3.86c0.36,1.25-0.46,2.84-1.7,3.61c-13.26,6.98-13.26,6.98-27.5,13.39c-1.47,0.62-3.08,0.14-3.66-1.03
		c-0.8-1.9-0.8-1.9-1.69-3.83c-0.53-1.26,0.26-2.92,1.8-3.57C116.72,125.26,116.72,125.26,130.56,118.28L130.56,118.28z
		 M159.21,99.37c0.69-0.71,1.41-0.18,1.57,0.99c0.12,1.85,0.12,1.85,0.28,3.6c0.06,1.13-0.48,2.6-1.1,3.27
		c-7.73,6.97-7.73,6.97-18,14.18c-1.17,0.74-2.38,0.43-2.6-0.88c-0.49-1.94-0.49-1.94-1.04-3.86c-0.29-1.28,0.4-2.98,1.64-3.75
		C150.75,105.98,150.75,105.98,159.21,99.37L159.21,99.37z M44.95,135.8c1.25-0.36,2.94,0.5,3.64,1.78
		c1.14,1.92,1.14,1.92,2.27,3.83c0.67,1.21,0.21,2.47-1.07,2.77c-11.17,2.14-11.17,2.14-20.04,2.65c-0.75-0.01-2-0.81-2.75-1.82
		c-1.13-1.51-1.13-1.51-2.29-3.08c-0.71-1.1-0.69-2.02,0.07-2.01C33.64,138.58,33.64,138.58,44.95,135.8L44.95,135.8z M84.31,122.29
		c1.57-0.58,3.44,0.12,4.06,1.6c0.98,2.15,0.98,2.15,2,4.36c0.59,1.4-0.2,3.07-1.78,3.64c-14.9,5.45-14.9,5.45-29.08,9.84
		c-1.32,0.39-3.12-0.34-3.82-1.61c-1.07-1.95-1.07-1.95-2.23-3.94c-0.66-1.37-0.19-2.81,1.2-3.23
		C69.05,128.06,69.05,128.06,84.31,122.29L84.31,122.29z M156.68,86.3c0.75-0.57,1.67,0.04,1.99,1.39c0.42,1.97,0.42,1.97,0.79,4.04
		c0.19,1.24-0.18,2.72-0.94,3.46c-8.71,6.39-8.71,6.39-19.74,13.18c-1.27,0.7-2.64,0.2-3.09-1.26c-0.65-2.13-0.65-2.13-1.35-4.39
		c-0.52-1.43,0.21-3.23,1.49-3.93C147.48,92.32,147.48,92.32,156.68,86.3L156.68,86.3z M120.12,88.38c1.54-0.65,3.2,0.14,3.82,1.61
		c0.87,2.45,0.87,2.45,1.77,4.8c0.58,1.57-0.15,3.37-1.67,4.09c-14.65,6.82-14.65,6.82-30.25,13.56c-1.61,0.68-3.48-0.03-4.13-1.57
		c-1-2.38-1-2.38-2.04-4.84c-0.68-1.62,0.12-3.44,1.74-4.12C105.17,95.09,105.17,95.09,120.12,88.38L120.12,88.38z M152.57,72.41
		c0.92-0.55,1.93,0.26,2.42,1.62c0.65,2.13,0.65,2.13,1.29,4.25c0.32,1.35-0.02,2.9-0.77,3.46c-9.49,5.73-9.49,5.73-21.34,12.13
		c-1.3,0.63-2.83-0.05-3.38-1.55c-0.83-2.37-0.83-2.37-1.67-4.75c-0.62-1.48,0.05-3.41,1.46-4
		C142.74,77.53,142.74,77.53,152.57,72.41L152.57,72.41z M30.99,107.14c1.26-0.53,2.82,0.22,3.47,1.76c1.05,2.29,1.05,2.29,2.02,4.6
		c0.72,1.52,0.21,3.05-1.05,3.59c-11.12,4.02-11.12,4.02-19.77,6.83c-0.66,0.2-1.76-0.66-2.4-1.96c-0.9-1.94-0.9-1.94-1.8-3.87
		c-0.56-1.34-0.41-2.55,0.29-2.85C20.1,111.72,20.1,111.72,30.99,107.14L30.99,107.14z M70.51,90.5c1.62-0.68,3.51,0.09,4.19,1.71
		c1.06,2.53,1.06,2.53,2.1,4.98c0.78,1.66,0,3.55-1.68,4.26c-15.53,6.29-15.53,6.29-29.93,11.94c-1.43,0.52-3.09-0.27-3.81-1.79
		c-1.08-2.36-1.08-2.36-2.05-4.67c-0.68-1.62-0.06-3.28,1.35-3.87C55,97.03,55,97.03,70.51,90.5L70.51,90.5z M113.66,72.26
		c1.47-0.62,3.3,0.18,3.98,1.8c0.96,2.49,0.96,2.49,1.97,4.88c0.68,1.61-0.02,3.48-1.57,4.13c-15.08,6.59-15.08,6.59-30.99,13.37
		c-1.61,0.68-3.51-0.09-4.19-1.71c-1.06-2.53-1.06-2.53-2.1-4.98c-0.71-1.69,0.07-3.58,1.75-4.29
		C98.39,78.77,98.39,78.77,113.66,72.26L113.66,72.26z M147.22,58.13c0.91-0.38,2.12,0.51,2.71,1.92c0.89,2.11,0.89,2.11,1.7,4.24
		c0.49,1.36,0.25,2.95-0.63,3.41c-10.08,4.9-10.08,4.9-22.45,10.69c-1.4,0.59-3.06-0.2-3.64-1.77c-1.01-2.39-1.01-2.39-1.94-4.8
		c-0.65-1.55-0.12-3.42,1.29-4.01C136.9,62.47,136.9,62.47,147.22,58.13L147.22,58.13z M63.7,74.11c1.61-0.68,3.48,0.02,4.16,1.64
		c1.03,2.46,1.03,2.46,2.03,5.01c0.68,1.61-0.07,3.58-1.68,4.26c-15.48,6.6-15.48,6.6-29.72,12.84c-1.4,0.59-2.99-0.23-3.64-1.77
		c-0.91-2.35-0.91-2.35-1.81-4.69c-0.58-1.57-0.02-3.38,1.36-4.04C48.44,80.86,48.44,80.86,63.7,74.11L63.7,74.11z M140.78,44.4
		c1.04-0.27,2.32,0.6,2.98,1.97c1,1.98,1,1.98,1.96,4.05c0.66,1.37,0.4,2.72-0.51,3.11c-10.44,4.06-10.44,4.06-23.13,9.07
		c-1.4,0.59-3.16-0.24-3.81-1.78c-1.07-2.36-1.07-2.36-2.15-4.72c-0.72-1.51-0.1-3.18,1.33-3.7
		C130.24,47.84,130.24,47.84,140.78,44.4L140.78,44.4z M20.22,77.04c1.14-0.64,2.46-0.04,2.91,1.42c0.71,2.26,0.71,2.26,1.44,4.6
		c0.55,1.5-0.04,3.24-1.28,3.84C13.02,92.54,13.02,92.54,5.4,97.4c-0.65,0.44-1.38-0.33-1.77-1.65c-0.49-1.94-0.49-1.94-0.9-3.92
		c-0.29-1.28-0.07-2.7,0.48-3.18C10.36,83.26,10.36,83.26,20.22,77.04L20.22,77.04z M133.72,31.75c0.93-0.14,2.35,0.67,3.02,1.87
		c1.11,1.85,1.11,1.85,2.25,3.77c0.67,1.2,0.52,2.42-0.45,2.67c-10.68,3.09-10.68,3.09-23.52,7.34c-1.43,0.52-3.16-0.24-3.85-1.69
		c-1.11-2.26-1.11-2.26-2.27-4.42c-0.66-1.37-0.08-2.94,1.31-3.36C123.01,34.19,123.01,34.19,133.72,31.75L133.72,31.75z
		 M51.77,44.01c1.52-0.72,3.23-0.2,3.74,1.23c0.86,2.04,0.86,2.04,1.71,4.24c0.52,1.43-0.24,3.16-1.83,3.91
		c-14.55,6.87-14.55,6.87-27.81,13.85c-1.28,0.7-2.6,0.1-3.02-1.29c-0.65-2.12-0.65-2.12-1.19-4.21c-0.32-1.35,0.37-3.05,1.61-3.82
		C37.7,50.84,37.7,50.84,51.77,44.01L51.77,44.01z M92.61,28.14c1.43-0.52,3.2,0.14,3.97,1.39c1,1.98,1,1.98,2.06,3.92
		c0.73,1.35,0.12,2.84-1.38,3.39c-15.03,5.33-15.03,5.33-30.42,11.57c-1.61,0.68-3.38,0.02-3.97-1.39
		c-0.84-2.21-0.84-2.21-1.73-4.31c-0.56-1.33,0.23-2.99,1.77-3.64C77.95,33.15,77.95,33.15,92.61,28.14L92.61,28.14z M126.17,20.87
		c0.96-0.07,2.35,0.67,3.1,1.67c1.16,1.58,1.16,1.58,2.32,3.16c0.78,1.08,0.65,2.13-0.38,2.23C120.59,30,120.59,30,107.81,33.4
		c-1.46,0.45-3.16-0.24-3.89-1.59c-1.07-1.95-1.07-1.95-2.18-3.79c-0.67-1.21-0.17-2.57,1.25-2.92
		C115.5,22.23,115.5,22.23,126.17,20.87L126.17,20.87z M14.58,51.06c0.96-0.65,1.97-0.42,2.13,0.76c0.23,1.72,0.23,1.72,0.52,3.58
		c0.26,1.21-0.39,2.81-1.47,3.59c-8.74,6.9-8.74,6.9-14.8,13.34c-0.42,0.59-0.83,0.18-0.8-0.9c-0.03-1.64-0.03-1.64,0.04-3.24
		c0.07-1.02,0.46-2.43,0.85-3.09C6.49,58.36,6.49,58.36,14.58,51.06L14.58,51.06z M47.29,31.59c1.45-0.69,2.92-0.32,3.32,0.83
		c0.74,1.76,0.74,1.76,1.37,3.64c0.53,1.26-0.36,2.88-1.83,3.5c-13.84,6.98-13.84,6.98-26.25,14.02c-1.17,0.74-2.41,0.35-2.67-0.86
		c-0.36-1.83-0.36-1.83-0.69-3.59c-0.19-1.24,0.59-2.73,1.66-3.51C34.05,38.41,34.05,38.41,47.29,31.59L47.29,31.59z M86.07,16.92
		c1.42-0.35,3.03,0.13,3.71,1.16c0.99,1.57,0.99,1.57,2.01,3.2c0.64,1.13,0.01,2.39-1.45,2.84C75.9,28.88,75.9,28.88,61.07,34.7
		c-1.54,0.65-3.15,0.17-3.68-1.09c-0.67-1.78-0.67-1.78-1.43-3.61c-0.47-1.12,0.34-2.54,1.81-3.16
		C72.06,21.33,72.06,21.33,86.07,16.92L86.07,16.92z M118.51,12.11c0.95,0.1,2.3,0.77,3.11,1.5c1.18,1.24,1.18,1.24,2.29,2.51
		c0.74,0.76,0.65,1.54-0.27,1.52c-10.62,1.08-10.62,1.08-23.01,3.65c-1.42,0.35-3.09-0.27-3.7-1.33c-1.09-1.61-1.09-1.61-2.15-3.15
		c-0.65-0.96-0.04-2.05,1.25-2.34C108.18,12.5,108.18,12.5,118.51,12.11L118.51,12.11z M44.01,21.65c1.31-0.63,2.63-0.44,2.91,0.43
		c0.52,1.43,0.52,1.43,0.98,2.9c0.34,1.01-0.43,2.33-1.87,3.02c-12.94,6.77-12.94,6.77-24.37,13.97c-1.07,0.78-2.08,0.55-2.15-0.41
		c-0.14-1.51-0.14-1.51-0.25-2.95c-0.04-0.89,0.77-2.31,1.77-3.06C31.8,28.36,31.8,28.36,44.01,21.65L44.01,21.65z M80.21,8.48
		c1.42-0.35,2.9,0.02,3.46,0.77c0.89,1.11,0.89,1.11,1.73,2.33c0.62,0.89,0.02,1.81-1.38,2.23c-13.79,4.15-13.79,4.15-27.73,9.52
		c-1.47,0.62-2.92,0.32-3.34-0.66c-0.52-1.44-0.52-1.44-1.04-2.87c-0.42-0.81,0.41-1.99,1.81-2.58
		C67.09,12.27,67.09,12.27,80.21,8.48L80.21,8.48z M111.05,6.16c0.81,0.16,2.17,0.65,2.96,1.15c1.15,0.76,1.15,0.76,2.25,1.62
		c0.75,0.6,0.65,0.96-0.29,0.87c-10.21,0.08-10.21,0.08-22.07,1.77c-1.38,0.25-2.99-0.23-3.58-1.05c-0.91-1.19-0.91-1.19-1.87-2.27
		c-0.6-0.65-0.01-1.4,1.23-1.59C101.19,5.52,101.19,5.52,111.05,6.16L111.05,6.16z"/>
</g>
</svg>
